<svg height="511pt" viewBox="1 -6 511.99994 511" width="511pt" xmlns="http://www.w3.org/2000/svg"><path d="m511.890625 182.6875c-.015625-.355469-.058594-.714844-.128906-1.066406-.078125-.375-.179688-.746094-.308594-1.109375-.125-.378907-.28125-.75-.460937-1.109375-.074219-.152344-.074219-.332032-.167969-.496094-.097657-.160156-.214844-.203125-.300781-.339844-.199219-.300781-.417969-.585937-.65625-.851562-.519532-.59375-1.109376-1.121094-1.757813-1.570313-.128906-.085937-.199219-.214843-.324219-.292969l-77.125-45.222656c-4.132812-2.261718-9.320312-.746094-11.582031 3.390625-2.164063 3.957031-.871094 8.917969 2.945313 11.320313l64.574218 37.886718-230.597656 135.175782-230.59375-135.175782 230.59375-135.175781 4.035156 2.371094c4.125 2.285156 9.316406.796875 11.601563-3.324219 2.210937-3.984375.902343-9-2.972657-11.394531l-8.347656-4.898437c-2.664062-1.566407-5.96875-1.566407-8.632812 0l-247.46875 145.066406c-.128906.066406-.195313.195312-.316406.28125-.652344.449218-1.246094.980468-1.765626 1.578125-.234374.273437-.453124.558593-.65625.855469-.085937.125-.222656.203124-.300781.339843-.074219.136719-.09375.339844-.167969.503907-.179687.355468-.335937.722656-.460937 1.101562-.128906.363281-.230469.730469-.308594 1.109375-.066406.351563-.109375.707031-.128906 1.066406 0 .1875-.109375.351563-.109375.539063v290.113281c0 14.140625 11.460938 25.601563 25.601562 25.601563h460.796876c14.140624 0 25.601562-11.460938 25.601562-25.601563v-290.132813c0-.1875-.09375-.351562-.109375-.539062zm-185.464844 114.210938 168.507813-98.78125v255.617187zm-309.359375-98.78125 168.507813 98.78125-168.507813 156.835937zm469.335938 283.777343h-460.800782c-3.492187-.015625-6.621093-2.15625-7.902343-5.402343l183.253906-170.582032 50.730469 29.738282c2.664062 1.566406 5.96875 1.566406 8.632812 0l50.734375-29.738282 183.25 170.582032c-1.28125 3.246093-4.410156 5.386718-7.898437 5.402343zm0 0"/><path d="m237.550781 103.160156-58.027343 33.515625c-12.234376 7.085938-16.433594 22.730469-9.386719 34.988281l17.066406 29.550782c5.402344 9.753906 16.644531 14.707031 27.488281 12.117187l46.359375 64.488281c2.558594 3.550782 7.394531 4.59375 11.1875 2.402344l22.1875-12.796875c4.082031-2.355469 5.480469-7.574219 3.121094-11.65625l-21.332031-36.949219 14.78125-8.535156c4.082031-2.355468 5.480468-7.574218 3.121094-11.65625l-12.609376-21.835937 79.640626-18.835938c2.894531 2.171875 6.40625 3.371094 10.027343 3.414063 2.996094.011718 5.941407-.78125 8.53125-2.285156l14.789063-8.535157c8.164062-4.710937 10.960937-15.148437 6.246094-23.3125l-17.066407-29.566406 7.382813-4.265625c4.085937-2.351562 5.488281-7.570312 3.136718-11.652344 0-.007812-.003906-.007812-.003906-.015625l-17.066406-29.550781c-2.351562-4.082031-7.570312-5.488281-11.652344-3.136719-.007812 0-.007812.003907-.015625.007813l-7.378906 4.265625-17.070313-29.558594c-4.710937-8.164063-15.148437-10.960937-23.3125-6.246094l-14.789062 8.53125c-5.882812 3.410157-9.183594 9.988281-8.394531 16.742188zm113.050781 39.730469-69.359374 16.441406-27.800782-48.160156 48.878906-51.867187zm-148.617187 49.78125-17.066406-29.542969c-2.363281-4.074218-.972657-9.296875 3.101562-11.660156.007813-.003906.015625-.007812.023438-.011719l51.726562-29.867187 25.601563 44.375-51.730469 29.867187c-4.085937 2.347657-9.300781.9375-11.648437-3.148437-.003907-.003906-.003907-.007813-.007813-.011719zm68.410156 68.90625-40.054687-55.710937 14.003906-8.082032 34.132812 59.117188zm-7.003906-64.9375 7.382813-4.265625 4.265624 7.390625-7.382812 4.265625zm62.78125-164.34375 59.730469 103.46875-14.796875 8.53125-59.730469-103.464844zm0 0"/><path d="m407.757812 54.167969c1.523438 2.644531 4.347657 4.269531 7.398438 4.265625 1.496094.003906 2.96875-.390625 4.265625-1.140625l14.789063-8.535157c4.097656-2.328124 5.53125-7.539062 3.199218-11.636718-2.328125-4.097656-7.539062-5.527344-11.636718-3.199219-.03125.019531-.0625.039063-.097657.054687l-14.785156 8.535157c-4.085937 2.351562-5.488281 7.570312-3.136719 11.652343.003906.003907.003906.003907.003906.003907zm0 0"/><path d="m416.308594 84.238281c.265625 4.515625 4.007812 8.039063 8.53125 8.03125h.523437l19.042969-1.144531c4.714844-.277344 8.308594-4.328125 8.027344-9.039062-.28125-4.714844-4.328125-8.308594-9.042969-8.027344l-19.042969 1.144531c-4.707031.265625-8.308594 4.292969-8.042968 9 0 .011719.003906.023437.003906.035156zm0 0"/><path d="m385.988281 31.71875c3.929688 2.59375 9.21875 1.515625 11.820313-2.40625l10.519531-15.898438c2.417969-4.046874 1.101563-9.285156-2.945313-11.703124-3.792968-2.269532-8.691406-1.265626-11.285156 2.316406l-10.523437 15.871094c-2.59375 3.929687-1.515625 9.222656 2.414062 11.820312zm0 0"/></svg>